<svg width="119" height="112" fill="none" xmlns="http://www.w3.org/2000/svg"><path d="M58.7 63.7H45.4v9.1h13.3v-9.1ZM42 47h-9v13.3h9V47ZM42 76.2h-9v13.3h9V76.2Z" fill="#fff"/><path d="M92.6 12H7.4A7.4 7.4 0 0 0 0 19.4v85.2a7.4 7.4 0 0 0 7.4 7.4h85.2a7.4 7.4 0 0 0 7.4-7.4V19.4a7.4 7.4 0 0 0-7.4-7.4Zm-18 33.3a1.7 1.7 0 0 1-1.7 1.7H45.4v13.3h15A1.7 1.7 0 0 1 62 62v12.5a1.7 1.7 0 0 1-1.7 1.7H45.4v15a1.7 1.7 0 0 1-1.6 1.6H31.3a1.7 1.7 0 0 1-1.7-1.6V74.5a1.7 1.7 0 0 1 1.7-1.7H42v-9.1H31.3a1.7 1.7 0 0 1-1.7-1.7V45.3a1.7 1.7 0 0 1 1.7-1.6H42V32.8a1.7 1.7 0 0 1 1.7-1.6h29.1a1.7 1.7 0 0 1 1.7 1.6v12.5Z" fill="#fff"/><path d="M71.3 34.5H45.4v9.2h25.9v-9.2Z" fill="#fff"/><path d="M88.3 35.9 116 8.5a3.3 3.3 0 0 0 0-4.7l-1.2-1.3-1.1 1 1-1a3.3 3.3 0 0 0-4.7 0L86 26.2l-9.5-9.6a3.3 3.3 0 0 0-4.7 0L70.5 18a3.3 3.3 0 0 0 0 4.7L83.6 36a3.3 3.3 0 0 0 4.7 0Z" fill="#0ED984" stroke="#fff" stroke-width="3"/></svg>